# xmcd CD database file
#
# Track frame offsets:
#	150
#	37930
#	53367
#	80677
#	118402
#	143645
#	160367
#	188117
#	226205
#
# Disc length: 3048 seconds
#
# Revision: 0
# Processed by: cddbd v1.5.1PL0 Copyright (c) Steve Scherf et al.
# Submitted via: CDex 1.51
#
DISCID=6e0be609
DTITLE=Juhan Lee - Miles Song Book [CD2]
DYEAR=2002
DGENRE=Jazz
TTITLE0=There Is No Greater Love
TTITLE1=Seven Steps to Heaven
TTITLE2=Green Dolphin Street
TTITLE3=Stella By Starlight
TTITLE4=Four
TTITLE5=All of You
TTITLE6=Someday My Prince Will Come (Alternate Take)
TTITLE7=There Is No Greater Love (Alternate Take)
TTITLE8=Oleo
EXTD=YEAR: 2002
EXTT0=
EXTT1=
EXTT2=
EXTT3=
EXTT4=
EXTT5=
EXTT6=
EXTT7=
EXTT8=
PLAYORDER=
